<svg width="30" height="22" viewBox="0 0 30 22" fill="none" xmlns="http://www.w3.org/2000/svg">
<path d="M18.9975 0C16.9542 0.00156822 14.9516 0.57142 13.2136 1.64582C11.4757 2.72023 10.071 4.25682 9.15658 6.08375C8.06879 5.92514 6.95997 5.99232 5.89929 6.2811C4.83862 6.56988 3.84883 7.07407 2.99168 7.76221C2.13453 8.45036 1.4284 9.3077 0.917323 10.2808C0.406252 11.2538 0.101206 12.3217 0.0212134 13.4179C-0.0587791 14.514 0.0879976 15.6149 0.452388 16.6518C0.816779 17.6887 1.39097 18.6395 2.13914 19.4447C2.88731 20.2499 3.79341 20.8924 4.80093 21.3321C5.80845 21.7717 6.89577 21.9991 7.99507 22H18.9975C21.9156 22 24.7141 20.8411 26.7775 18.7782C28.8408 16.7153 30 13.9174 30 11C30 8.08262 28.8408 5.28473 26.7775 3.22183C24.7141 1.15893 21.9156 0 18.9975 0ZM18.9975 20H7.99507C6.40342 20 4.87695 19.3679 3.75148 18.2426C2.62601 17.1174 1.99373 15.5913 1.99373 14C1.99373 12.4087 2.62601 10.8826 3.75148 9.75736C4.87695 8.63214 6.40342 8 7.99507 8C8.1326 8 8.27013 8 8.40641 8.01375C8.13288 8.98558 7.99447 9.99043 7.99507 11C7.99507 11.2652 8.10045 11.5196 8.28803 11.7071C8.47561 11.8946 8.73002 12 8.9953 12C9.26057 12 9.51498 11.8946 9.70256 11.7071C9.89014 11.5196 9.99552 11.2652 9.99552 11C9.99552 9.21997 10.5235 7.47991 11.5126 5.99987C12.5018 4.51982 13.9077 3.36627 15.5526 2.68508C17.1975 2.0039 19.0075 1.82567 20.7537 2.17293C22.5 2.5202 24.104 3.37737 25.3629 4.63604C26.6219 5.89471 27.4792 7.49836 27.8266 9.24419C28.1739 10.99 27.9957 12.7996 27.3143 14.4442C26.633 16.0887 25.4792 17.4943 23.9988 18.4832C22.5184 19.4722 20.778 20 18.9975 20Z" fill="black"/>
</svg>
