<svg width="20" height="20" viewBox="0 0 20 20" fill="none" xmlns="http://www.w3.org/2000/svg">
<path d="M4.28564 5.71429H9.99993V7.14286H4.28564V5.71429ZM4.28564 2.85714H12.8571V4.28571H4.28564V2.85714ZM4.28564 0H12.8571V1.42857H4.28564V0Z" fill="black"/>
<path d="M1.93643 18.5714L5.95857 11.4314L11.2686 16.0671C11.4291 16.21 11.6198 16.3148 11.8264 16.3737C12.033 16.4326 12.2503 16.4442 12.462 16.4075C12.6737 16.3709 12.8744 16.2869 13.0492 16.162C13.2239 16.037 13.3683 15.8742 13.4714 15.6857L18.45 8.255L17.2636 7.45929L12.2636 14.9221L12.2136 14.9957L6.90286 10.36C6.74239 10.218 6.55208 10.1138 6.34596 10.0552C6.13985 9.9966 5.9232 9.98504 5.71202 10.0214C5.50083 10.0577 5.30051 10.141 5.12584 10.2652C4.95118 10.3893 4.80662 10.5511 4.70286 10.7386L1.42857 16.5593V0H0V18.5714C0 18.9503 0.15051 19.3137 0.418419 19.5816C0.686328 19.8495 1.04969 20 1.42857 20H20V18.5714H1.93643Z" fill="black"/>
</svg>
