<svg width="30" height="32" viewBox="0 0 30 32" fill="none" xmlns="http://www.w3.org/2000/svg">
<path d="M26.6667 13.3334C22.3326 13.5847 18.1644 15.0872 14.6667 17.6587C11.1689 15.0872 7.0007 13.5847 2.66667 13.3334V17.28C1.95824 17.2815 1.27937 17.5641 0.779313 18.0659C0.279254 18.5678 -0.00105893 19.2476 3.00628e-06 19.956V21.2947C3.00628e-06 22.7734 2.66667 24.2387 2.66667 24.2387V26.9147C6.20798 27.1426 9.62323 28.3168 12.556 30.3147C13.2967 30.8283 14.0019 31.3913 14.6667 32C15.3314 31.3913 16.0366 30.8283 16.7773 30.3147C19.7101 28.3168 23.1254 27.1426 26.6667 26.9147V23.9707C27.3751 23.9693 28.054 23.6866 28.554 23.1848C29.0541 22.683 29.3344 22.0031 29.3333 21.2947V19.956C29.3344 19.2476 29.0541 18.5678 28.554 18.0659C28.054 17.5641 27.3751 17.2815 26.6667 17.28V13.3334ZM14.6667 28.5627C11.9013 26.536 8.70862 25.1696 5.33334 24.568V16.368C7.92011 16.8892 10.3761 17.9238 12.556 19.4107C13.2967 19.9243 14.0019 20.4873 14.6667 21.096C15.3314 20.4873 16.0366 19.9243 16.7773 19.4107C18.9571 17.9233 21.4131 16.8882 24 16.3667V24.568C20.6247 25.1696 17.432 26.536 14.6667 28.5627ZM13.3333 10.6667H16V12H13.3333V10.6667ZM13.3333 5.33337H16V6.66671H13.3333V5.33337Z" fill="black"/>
<path d="M13.3334 13.3331H16V14.6664H13.3334V13.3331ZM10.6667 6.66643C11.0203 6.66643 11.3595 6.52595 11.6095 6.2759C11.8596 6.02586 12 5.68672 12 5.3331C12.0013 5.1594 11.968 4.9872 11.9021 4.82649C11.8362 4.66578 11.739 4.51977 11.6162 4.39695C11.4934 4.27413 11.3473 4.17694 11.1866 4.11105C11.0259 4.04515 10.8537 4.01185 10.68 4.01309C10.5058 4.01222 10.3331 4.04567 10.1718 4.11153C10.0105 4.17739 9.86379 4.27438 9.73998 4.39695C9.48993 4.6445 9.34846 4.98124 9.3467 5.3331C9.34493 5.68495 9.48301 6.02309 9.73055 6.27314C9.9781 6.52319 10.3148 6.66466 10.6667 6.66643Z" fill="black"/>
<path d="M18.6666 6.66667C19.403 6.66667 19.9999 6.06971 19.9999 5.33333C19.9999 4.59695 19.403 4 18.6666 4C17.9302 4 17.3333 4.59695 17.3333 5.33333C17.3333 6.06971 17.9302 6.66667 18.6666 6.66667Z" fill="black"/>
<path d="M19.9999 10.6667H9.33325C8.27271 10.6656 7.25591 10.2438 6.50599 9.49393C5.75608 8.74401 5.33431 7.72721 5.33325 6.66667V4C5.33431 2.93946 5.75608 1.92266 6.50599 1.17274C7.25591 0.422826 8.27271 0.00105895 9.33325 0L19.9999 0C21.0605 0.00105895 22.0773 0.422826 22.8272 1.17274C23.5771 1.92266 23.9989 2.93946 23.9999 4V6.66667C23.9989 7.72721 23.5771 8.74401 22.8272 9.49393C22.0773 10.2438 21.0605 10.6656 19.9999 10.6667ZM9.33325 2.66667C8.97963 2.66667 8.64049 2.80714 8.39044 3.05719C8.14039 3.30724 7.99992 3.64638 7.99992 4V6.66667C7.99992 7.02029 8.14039 7.35943 8.39044 7.60948C8.64049 7.85952 8.97963 8 9.33325 8H19.9999C20.3535 8 20.6927 7.85952 20.9427 7.60948C21.1928 7.35943 21.3333 7.02029 21.3333 6.66667V4C21.3333 3.64638 21.1928 3.30724 20.9427 3.05719C20.6927 2.80714 20.3535 2.66667 19.9999 2.66667H9.33325Z" fill="black"/>
</svg>
