<svg width="27" height="27" viewBox="0 0 27 27" fill="none" xmlns="http://www.w3.org/2000/svg">
<path d="M20.5734 6.88475V9.74487C20.5618 10.8142 20.1359 11.8373 19.3855 12.5991C18.635 13.3609 17.6184 13.802 16.5494 13.8297H10.1155C9.25785 13.8473 8.441 14.1993 7.83928 14.8108C7.23756 15.4222 6.89862 16.2446 6.89478 17.1025V23.2355C6.89478 24.9808 8.41259 26.0088 10.1155 26.5093C12.2103 27.1629 14.4546 27.1629 16.5494 26.5093C18.1713 26.0396 19.7701 25.0946 19.7701 23.2364V20.7803H13.3363V19.9616H22.9909C24.8626 19.9616 25.5608 18.656 26.2117 16.6965C26.8731 14.5641 26.8731 12.2813 26.2117 10.1489C25.7488 8.28588 24.8655 6.88379 22.9909 6.88379L20.5734 6.88475ZM16.9553 22.4177C17.199 22.4141 17.4383 22.4831 17.6427 22.6159C17.847 22.7487 18.0072 22.9394 18.1028 23.1636C18.1984 23.3878 18.2251 23.6353 18.1795 23.8748C18.134 24.1142 18.0181 24.3346 17.8468 24.508C17.6755 24.6813 17.4565 24.7998 17.2176 24.8482C16.9787 24.8967 16.7308 24.8729 16.5055 24.7799C16.2802 24.687 16.0877 24.5291 15.9524 24.3263C15.8172 24.1236 15.7454 23.8852 15.7461 23.6414C15.7448 23.4815 15.7751 23.323 15.8353 23.1748C15.8954 23.0267 15.9842 22.8919 16.0965 22.7781C16.2088 22.6643 16.3425 22.5738 16.4899 22.5118C16.6373 22.4498 16.7954 22.4185 16.9553 22.4177Z" fill="black"/>
<path d="M13.1933 0.000245069C12.1617 0.00118572 11.132 0.0892502 10.1153 0.263499C7.38918 0.744686 6.8945 1.75238 6.8945 3.61156V6.0657H13.336V6.8844H4.47699C3.52881 6.86688 2.60495 7.18504 1.86861 7.78268C1.13228 8.38032 0.630871 9.21898 0.452963 10.1505C-0.150988 12.2909 -0.150988 14.5567 0.452963 16.6971C0.911006 18.6036 2.00452 19.9623 3.87623 19.9623H6.09124V17.0202C6.11477 15.9624 6.54696 14.9548 7.29718 14.2087C8.0474 13.4626 9.05736 13.036 10.1153 13.0183H16.5491C16.9755 13.0152 17.3972 12.928 17.7899 12.7617C18.1827 12.5955 18.5388 12.3535 18.8379 12.0495C19.137 11.7456 19.3733 11.3856 19.5332 10.9903C19.6931 10.5949 19.7735 10.1719 19.7699 9.74548V3.61156C19.7155 2.76278 19.3621 1.96073 18.7725 1.34779C18.1829 0.734855 17.3951 0.350688 16.5491 0.263499C15.4397 0.082771 14.3173 -0.00528457 13.1933 0.000245069ZM9.71026 1.97513C9.95363 1.9715 10.1926 2.0403 10.3968 2.17279C10.6009 2.30528 10.7611 2.49547 10.857 2.71921C10.9528 2.94295 10.98 3.19012 10.935 3.42933C10.89 3.66854 10.775 3.88898 10.6044 4.06264C10.4339 4.23631 10.2156 4.35536 9.97724 4.40466C9.73888 4.45397 9.49126 4.4313 9.26582 4.33955C9.04038 4.24779 8.8473 4.09109 8.71112 3.88935C8.57495 3.68761 8.50182 3.44994 8.50103 3.20655C8.49922 2.88324 8.62534 2.57233 8.85187 2.34164C9.0784 2.11095 9.38697 1.9792 9.71026 1.97513Z" fill="black"/>
</svg>
